<?xml version="1.0" encoding="UTF-8" standalone="no"?>
<!DOCTYPE svg PUBLIC "-//W3C//DTD SVG 1.1//EN" "http://www.w3.org/Graphics/SVG/1.1/DTD/svg11.dtd">
<svg width="100%" height="100%" viewBox="0 0 1918 442" version="1.1" xmlns="http://www.w3.org/2000/svg" xmlns:xlink="http://www.w3.org/1999/xlink" xml:space="preserve" xmlns:serif="http://www.serif.com/" style="fill-rule:evenodd;clip-rule:evenodd;stroke-linejoin:round;stroke-miterlimit:2;">
    <g transform="matrix(1,0,0,1,-133.251,-1689.68)">
        <g transform="matrix(1.11204,0,0,1,-16.7044,811.491)">
            <g transform="matrix(1,0,0,1,13.0416,19.3371)">
                <g id="Logo" transform="matrix(1.69224,0,0,1.88184,-996.857,367.364)">
                    <g transform="matrix(0.991022,0,0,0.991022,-3.36938,-23.2434)">
                        <circle cx="737.26" cy="456.567" r="66.169" style="fill:rgb(247,239,239);"/>
                        <clipPath id="_clip1">
                            <circle cx="737.26" cy="456.567" r="66.169"/>
                        </clipPath>
                        <g clip-path="url(#_clip1)">
                            <g transform="matrix(1,0,0,1,-0.116703,-0.160905)">
                                <path d="M788.503,414.721C776.366,428.743 758.441,437.619 738.459,437.619C717.808,437.619 699.354,428.139 687.216,413.296C699.353,399.275 717.278,390.398 737.26,390.398C757.911,390.398 776.365,399.879 788.503,414.721Z" style="fill:rgb(232,23,43);"/>
                            </g>
                        </g>
                    </g>
                    <g transform="matrix(0.991022,0,0,0.991022,-4.01186,-125.72)">
                        <path d="M685.884,500.038C680.393,493.396 671.091,477.704 671.091,456.567C671.091,420.048 700.74,390.398 737.26,390.398C773.78,390.398 803.429,420.048 803.429,456.567C803.429,472.978 797.443,488.001 787.536,499.569C775.454,484.953 757.219,475.607 736.814,475.516C716.784,475.605 697.964,485.881 685.884,500.038Z" style="fill:rgb(247,239,239);"/>
                    </g>
                </g>
                <g transform="matrix(1.16967,0,0,1.30072,-181.52,-333.308)">
                    <g transform="matrix(472.421,0,0,472.421,444.774,1252.76)">
                        <path d="M0.139,-0.275L0.139,-0.37L0.366,-0.37C0.399,-0.37 0.425,-0.381 0.444,-0.404C0.464,-0.426 0.474,-0.456 0.474,-0.492C0.474,-0.529 0.464,-0.559 0.444,-0.582C0.425,-0.604 0.399,-0.615 0.366,-0.615L0.139,-0.615L0.139,-0.71L0.363,-0.71C0.406,-0.71 0.443,-0.701 0.475,-0.683C0.507,-0.665 0.532,-0.639 0.549,-0.607C0.567,-0.574 0.576,-0.536 0.576,-0.492C0.576,-0.449 0.567,-0.41 0.549,-0.378C0.532,-0.345 0.507,-0.32 0.475,-0.302C0.443,-0.284 0.406,-0.275 0.363,-0.275L0.139,-0.275ZM0.088,-0L0.088,-0.71L0.188,-0.71L0.188,-0L0.088,-0Z" style="fill:rgb(247,239,239);fill-rule:nonzero;"/>
                    </g>
                    <g transform="matrix(472.421,0,0,472.421,695.225,1252.76)">
                        <path d="M0.078,-0L0.078,-0.507L0.178,-0.507L0.178,-0L0.078,-0ZM0.357,-0.387C0.348,-0.397 0.337,-0.406 0.324,-0.411C0.31,-0.417 0.295,-0.419 0.277,-0.419C0.246,-0.419 0.221,-0.411 0.204,-0.393C0.186,-0.376 0.178,-0.352 0.178,-0.321L0.167,-0.418C0.183,-0.448 0.203,-0.472 0.228,-0.489C0.253,-0.506 0.28,-0.514 0.31,-0.514C0.333,-0.514 0.354,-0.511 0.373,-0.504C0.391,-0.497 0.408,-0.488 0.422,-0.475L0.357,-0.387Z" style="fill:rgb(247,239,239);fill-rule:nonzero;"/>
                    </g>
                    <g transform="matrix(472.421,0,0,472.421,860.096,1252.76)">
                        <path d="M0.272,0.007C0.206,0.007 0.155,-0.012 0.118,-0.05C0.082,-0.089 0.063,-0.143 0.063,-0.213L0.063,-0.296C0.063,-0.365 0.082,-0.419 0.118,-0.457C0.155,-0.495 0.206,-0.514 0.272,-0.514C0.339,-0.514 0.39,-0.495 0.427,-0.457C0.463,-0.419 0.481,-0.365 0.481,-0.296L0.481,-0.212C0.481,-0.142 0.463,-0.088 0.427,-0.05C0.39,-0.012 0.339,0.007 0.272,0.007ZM0.272,-0.087C0.307,-0.087 0.334,-0.098 0.353,-0.12C0.372,-0.142 0.382,-0.173 0.382,-0.212L0.382,-0.296C0.382,-0.335 0.372,-0.366 0.353,-0.387C0.334,-0.409 0.307,-0.419 0.272,-0.419C0.238,-0.419 0.211,-0.409 0.192,-0.387C0.173,-0.366 0.163,-0.335 0.163,-0.296L0.163,-0.212C0.163,-0.173 0.173,-0.142 0.192,-0.12C0.211,-0.098 0.238,-0.087 0.272,-0.087Z" style="fill:rgb(247,239,239);fill-rule:nonzero;"/>
                    </g>
                    <g transform="matrix(472.421,0,0,472.421,1085.4,1252.76)">
                        <path d="M0.115,-0.074L0.121,-0.192L0.382,-0.507L0.499,-0.507L0.115,-0.074ZM0.078,-0L0.078,-0.71L0.178,-0.71L0.178,-0L0.078,-0ZM0.416,-0L0.239,-0.292L0.303,-0.359L0.524,-0L0.416,-0Z" style="fill:rgb(247,239,239);fill-rule:nonzero;"/>
                    </g>
                    <g transform="matrix(472.421,0,0,472.421,1303.1,1252.76)">
                        <path d="M0.078,-0.61L0.078,-0.71L0.178,-0.71L0.178,-0.61L0.078,-0.61ZM0.078,-0L0.078,-0.507L0.178,-0.507L0.178,-0L0.078,-0Z" style="fill:rgb(247,239,239);fill-rule:nonzero;"/>
                    </g>
                    <g transform="matrix(472.421,0,0,472.421,1389.54,1252.76)">
                        <path d="M0.21,0.002C0.168,0.002 0.138,-0.009 0.119,-0.032C0.101,-0.055 0.091,-0.089 0.091,-0.132L0.091,-0.654L0.191,-0.654L0.191,-0.131C0.191,-0.119 0.193,-0.109 0.198,-0.103C0.203,-0.096 0.21,-0.092 0.22,-0.092L0.268,-0.092L0.268,0.002L0.21,0.002ZM0.039,-0.417L0.039,-0.507L0.268,-0.507L0.268,-0.417L0.039,-0.417Z" style="fill:rgb(247,239,239);fill-rule:nonzero;"/>
                    </g>
                    <g transform="matrix(472.421,0,0,472.421,1511.51,1252.76)">
                        <path d="M0.257,0.007C0.212,0.007 0.172,0.001 0.135,-0.012C0.098,-0.026 0.066,-0.045 0.037,-0.072L0.096,-0.145C0.123,-0.124 0.151,-0.108 0.177,-0.098C0.204,-0.087 0.231,-0.082 0.257,-0.082C0.297,-0.082 0.326,-0.088 0.346,-0.1C0.366,-0.112 0.375,-0.131 0.375,-0.155C0.375,-0.174 0.369,-0.188 0.355,-0.195C0.342,-0.203 0.325,-0.208 0.304,-0.21C0.283,-0.213 0.26,-0.215 0.235,-0.217C0.215,-0.218 0.194,-0.221 0.174,-0.224C0.154,-0.228 0.136,-0.234 0.119,-0.243C0.103,-0.252 0.089,-0.265 0.079,-0.283C0.069,-0.3 0.064,-0.324 0.064,-0.354C0.064,-0.407 0.081,-0.447 0.114,-0.474C0.147,-0.501 0.196,-0.514 0.261,-0.514C0.3,-0.514 0.337,-0.509 0.372,-0.498C0.406,-0.487 0.438,-0.471 0.468,-0.449L0.408,-0.376C0.382,-0.392 0.357,-0.404 0.333,-0.413C0.308,-0.421 0.284,-0.425 0.261,-0.425C0.227,-0.425 0.201,-0.419 0.185,-0.407C0.168,-0.396 0.159,-0.379 0.159,-0.355C0.159,-0.34 0.165,-0.329 0.177,-0.322C0.188,-0.316 0.204,-0.312 0.223,-0.31C0.242,-0.308 0.263,-0.306 0.285,-0.304C0.306,-0.303 0.328,-0.3 0.349,-0.297C0.371,-0.294 0.391,-0.287 0.409,-0.277C0.427,-0.268 0.442,-0.253 0.453,-0.234C0.464,-0.215 0.47,-0.188 0.47,-0.155C0.47,-0.101 0.452,-0.06 0.417,-0.033C0.381,-0.006 0.328,0.007 0.257,0.007Z" style="fill:rgb(247,239,239);fill-rule:nonzero;"/>
                    </g>
                </g>
            </g>
        </g>
    </g>
</svg>
